PathFileType	4	(X/Y/Z)	E:\Qualisys_Data\Carbon_Farble_Plate\Data\Amateur_Runner\S14\T1\S14T1V12_c3d.trc
DataRate	CameraRate	NumFrames	NumMarkers	Units	OrigDataRate	OrigDataStartFrame	OrigNumFrames
200.000000	200.000000	5	39	mm	200.000000	0	338
Frame#	Time	LSHO			RSHO			LICST			RICST			LASIS			LHEEL			RASIS			LTROC			RTROC			SACR			LTH1			LSK4			LTH2			LTH3			RHM5			LSK2			LTH4			RTH1			LTOE			RTH2			RTH3			RTH4			LLEP			RLEP			LSK1			LSK3			RSK1			LHM5			RSK2			LFT1			RSK3			RSK4			LLME			RLME			RTOE			RHEEL			RFT1			RFT2			LFT2			
		X1	Y1	Z1	X2	Y2	Z2	X3	Y3	Z3	X4	Y4	Z4	X5	Y5	Z5	X6	Y6	Z6	X7	Y7	Z7	X8	Y8	Z8	X9	Y9	Z9	X10	Y10	Z10	X11	Y11	Z11	X12	Y12	Z12	X13	Y13	Z13	X14	Y14	Z14	X15	Y15	Z15	X16	Y16	Z16	X17	Y17	Z17	X18	Y18	Z18	X19	Y19	Z19	X20	Y20	Z20	X21	Y21	Z21	X22	Y22	Z22	X23	Y23	Z23	X24	Y24	Z24	X25	Y25	Z25	X26	Y26	Z26	X27	Y27	Z27	X28	Y28	Z28	X29	Y29	Z29	X30	Y30	Z30	X31	Y31	Z31	X32	Y32	Z32	X33	Y33	Z33	X34	Y34	Z34	X35	Y35	Z35	X36	Y36	Z36	X37	Y37	Z37	X38	Y38	Z38	X39	Y39	Z39	

1	0	-2320.535400390625	1513.506958007812	-465.7982177734375	-2372.25830078125	1507.004516601562	-176.1195526123047	-2386.705810546875	1061.965209960938	-462.4742736816406	-2372.93212890625	1063.347778320312	-189.9504699707031	-2353.197265625	1006.663452148438	-438.6390991210938	-2909.990966796875	334.3251647949219	-340.7033996582031	-2348.05029296875	1020.044128417969	-208.945068359375	-2520.485595703125	967.1305541992188	-478.7256774902344	-2489.270751953125	972.7991333007812	-159.3049926757812	-2515.587890625	1079.166625976562	-332.3294372558594	-2522.97314453125	733.7750244140625	-484.9679870605469	-2790.720947265625	466.173583984375	-422.6585083007812	-2592.3818359375	761.5685424804688	-454.7533569335938	-2548.791748046875	639.2371215820312	-462.1393737792969	-2126.358642578125	142.0473480224609	-162.1061706542969	-2726.835693359375	540.8970947265625	-439.8413391113281	-2619.694580078125	668.60302734375	-436.6316833496094	-2287.5263671875	764.8764038085938	-165.2404022216797	-2821.107666015625	97.16236877441406	-399.8816528320312	-2359.929931640625	741.4368896484375	-156.4549865722656	-2251.546875	673.8435668945312	-188.8832092285156	-2327.99560546875	644.9359741210938	-171.6667022705078	-2607.353759765625	586.0423583984375	-449.228759765625	-2286.118896484375	582.984619140625	-178.5690155029297	-2664.836181640625	487.1882019042969	-450.5321350097656	-2733.178466796875	411.5835571289062	-438.0939025878906	-2249.31884765625	462.9135437011719	-169.0254974365234	-2873.050537109375	155.6862487792969	-446.9161071777344	-2334.327392578125	451.9377746582031	-166.8114318847656	-2920.679931640625	310.57958984375	-312.2824401855469	-2242.605224609375	359.2447204589844	-177.7248992919922	-2323.449462890625	355.7106628417969	-177.4328155517578	-2877.170166015625	305.453857421875	-408.6548156738281	-2264.9326171875	178.5838470458984	-192.8122863769531	-2056.6865234375	169.3775329589844	-222.1643676757812	-2317.77099609375	139.7995758056641	-247.6672515869141	-2292.577392578125	115.1556625366211	-277.4109802246094	-2309.023681640625	116.2347640991211	-221.0675201416016	-2940.793212890625	323.0145874023438	-363.0903625488281
2	0.005	-2305.240234375	1514.150024414062	-465.117431640625	-2357.42578125	1507.500366210938	-175.374755859375	-2370.74462890625	1063.30712890625	-462.5126037597656	-2356.0498046875	1063.106567382812	-189.7606048583984	-2337.225341796875	1008.021362304688	-439.1170959472656	-2898.7294921875	340.7035217285156	-338.0727844238281	-2330.741455078125	1018.563537597656	-209.0098114013672	-2504.44189453125	968.28759765625	-479.0398559570312	-2472.211669921875	971.9345703125	-159.6052856445312	-2499.318115234375	1079.417358398438	-331.8087158203125	-2506.84033203125	734.7340087890625	-483.5006103515625	-2777.538818359375	471.9568786621094	-421.6212768554688	-2575.88671875	761.8292236328125	-454.54150390625	-2531.605712890625	639.8897094726562	-462.2255249023438	-2098.603759765625	145.7039337158203	-160.5775299072266	-2712.18359375	544.830322265625	-439.0731811523438	-2602.69775390625	668.9287719726562	-436.5081481933594	-2273.1650390625	762.28125	-165.1587982177734	-2814.849365234375	104.7434844970703	-403.6117858886719	-2346.001708984375	739.7382202148438	-155.8735504150391	-2238.5654296875	670.3724975585938	-188.3103179931641	-2314.7744140625	642.8126831054688	-170.7276916503906	-2591.835693359375	587.5538330078125	-449.663330078125	-2272.345947265625	580.4140625	-178.1307678222656	-2651.8310546875	490.0886535644531	-451.1371459960938	-2722.160400390625	415.3037719726562	-438.8458557128906	-2233.3681640625	462.0934448242188	-168.9858551025391	-2866.79296875	164.5556945800781	-448.1776733398438	-2317.31640625	450.1491088867188	-165.8063812255859	-2909.823974609375	316.5896301269531	-309.9295349121094	-2222.58837890625	358.527587890625	-176.54443359375	-2303.798828125	352.5617065429688	-177.7933349609375	-2868.14404296875	313.2977905273438	-407.6225280761719	-2239.333984375	176.9526672363281	-192.1776580810547	-2029.829345703125	176.2767639160156	-220.8982543945312	-2288.667724609375	135.7292327880859	-246.3724365234375	-2263.037353515625	112.7290496826172	-276.78564453125	-2278.313232421875	112.4795074462891	-220.2670745849609	-2931.12890625	330.5887451171875	-360.4587707519531
3	0.01	-2289.881591796875	1514.39990234375	-463.7280883789062	-2341.974609375	1507.607055664062	-174.1912689208984	-2354.069580078125	1063.481567382812	-462.0676574707031	-2339.22607421875	1061.277587890625	-188.8245391845703	-2320.35888671875	1007.669616699219	-438.5554809570312	-2888.796875	349.0225830078125	-336.3095397949219	-2314.418212890625	1017.870056152344	-208.9915771484375	-2487.783203125	968.6705932617188	-478.7952575683594	-2455.44482421875	970.1578369140624	-159.1313018798828	-2483.31884765625	1079.311401367188	-331.1600036621094	-2490.27001953125	735.0283813476562	-483.6694946289062	-2764.3349609375	477.4758605957031	-420.5492553710938	-2559.169921875	761.887939453125	-454.5920104980469	-2514.86474609375	640.1976928710938	-462.7920227050781	-2071.81396484375	149.27783203125	-159.3312377929688	-2696.755615234375	548.5895385742188	-438.3451843261719	-2586.55419921875	668.8404541015625	-436.9616394042969	-2257.874267578125	758.7169189453125	-164.3597717285156	-2808.946044921875	111.6147842407227	-406.5365295410156	-2330.599365234375	737.3785400390625	-154.1900177001953	-2224.539306640625	667.2760620117188	-188.5639190673828	-2301.502197265625	639.7973022460938	-170.2305603027344	-2576.54541015625	589.355224609375	-451.2083129882812	-2258.89892578125	578.3547973632812	-177.5483551025391	-2638.583740234375	492.1664733886719	-451.8955078125	-2710.169189453125	419.5667419433594	-439.0760498046875	-2216.930908203125	461.2155456542969	-169.4908905029297	-2860.18896484375	173.2311401367188	-449.8259887695312	-2300.518798828125	445.2237854003906	-168.7969818115234	-2899.279052734375	324.0537109375	-308.3667907714844	-2203.062744140625	358.1296691894531	-176.6868133544922	-2283.828857421875	349.7037658691406	-177.6663665771484	-2859.280517578125	321.7122497558594	-406.9768981933594	-2213.994384765625	176.4899291992188	-192.1344299316406	-2003.834838867188	182.3719329833984	-218.9598236083984	-2260.805419921875	133.1774444580078	-245.8159790039062	-2234.524169921875	110.7083282470703	-276.2321166992188	-2249.986083984375	110.3768005371094	-219.3283386230469	-2920.178955078125	338.5807495117188	-358.8635864257812
4	0.015	-2275.08203125	1514.778686523438	-463.0658874511719	-2325.81201171875	1507.215454101562	-173.2462768554688	-2338.072265625	1063.795043945312	-461.8857116699219	-2322.16650390625	1059.826293945312	-189.3224334716797	-2304.153564453125	1007.763854980469	-438.569580078125	-2876.983642578125	355.7167358398438	-335.0577087402344	-2297.90771484375	1016.294677734375	-209.3811340332031	-2471.20263671875	968.8080444335938	-478.9652709960938	-2438.815185546875	968.6489868164062	-158.9154205322266	-2466.378173828125	1078.455200195312	-329.9766540527344	-2473.992919921875	735.2097778320312	-484.5619812011719	-2750.355712890625	482.8812255859375	-419.5324401855469	-2542.361572265625	762.3404541015625	-454.0411376953125	-2498.01025390625	639.6319580078125	-463.1782836914062	-2046.65283203125	154.0673675537109	-157.8262023925781	-2681.281494140625	552.2943115234375	-437.9873352050781	-2569.3857421875	668.3248901367188	-437.3196105957031	-2243.1162109375	755.2592163085938	-163.7657012939453	-2802.668212890625	118.2572708129883	-409.1096496582031	-2317.464599609375	734.2858276367188	-152.8637084960938	-2210.90234375	663.5138549804688	-187.9502410888672	-2288.843017578125	636.7203369140625	-169.5092315673828	-2559.9140625	590.25830078125	-451.0503540039062	-2244.222900390625	575.6068725585938	-175.628173828125	-2624.450927734375	494.3782958984375	-452.358154296875	-2697.9833984375	423.5660095214844	-439.3326110839844	-2200.7197265625	460.2099609375	-169.1568603515625	-2852.97216796875	181.9367980957031	-450.765625	-2283.318603515625	442.0774841308594	-169.2675476074219	-2888.392822265625	331.3896484375	-306.9579467773438	-2184.42138671875	357.5355529785156	-176.465087890625	-2263.978759765625	346.6919555664062	-178.3419799804688	-2848.67626953125	329.0200805664062	-406.1305847167969	-2187.50537109375	175.7705078125	-191.3909149169922	-1979.040893554688	188.1932830810547	-217.2984619140625	-2234.656982421875	131.2506866455078	-245.8501434326172	-2207.15576171875	109.0740127563477	-275.4456481933594	-2223.582763671875	108.5440292358398	-218.6455535888672	-2909.66650390625	346.6325378417969	-356.9332885742188
5	0.02	-2259.3212890625	1514.219848632812	-462.1312866210938	-2310.484619140625	1507.103881835938	-172.5923156738281	-2322.265625	1064.012329101562	-461.0823669433594	-2306.010009765625	1059.05224609375	-188.8099670410156	-2288.344970703125	1007.845153808594	-438.758056640625	-2865.079833984375	363.4022827148438	-333.626708984375	-2281.138671875	1014.924926757812	-209.5801696777344	-2454.2939453125	968.5202026367188	-478.3379516601562	-2421.259033203125	966.6915283203124	-158.5102844238281	-2450.53271484375	1077.618041992188	-328.8607177734375	-2455.8134765625	734.3650512695312	-484.9787292480469	-2736.139892578125	487.9659118652344	-418.1636962890625	-2525.77490234375	761.5648193359375	-454.822021484375	-2480.58544921875	638.7117309570312	-463.6304931640625	-2022.03369140625	156.8722991943359	-157.0894775390625	-2665.546630859375	555.734619140625	-437.3290710449219	-2551.83740234375	667.5978393554688	-437.3282165527344	-2227.95458984375	752.2205200195312	-162.2350921630859	-2796.7119140625	124.7638473510742	-410.72314453125	-2302.10888671875	731.6196899414062	-150.8816833496094	-2196.95361328125	660.0883178710938	-188.3821868896484	-2274.802490234375	633.631591796875	-168.2540588378906	-2542.650146484375	589.52001953125	-452.3594360351562	-2230.588623046875	572.3847045898438	-175.0840454101562	-2610.859130859375	496.4999084472656	-453.14501953125	-2685.3740234375	427.3188781738281	-439.6058654785156	-2183.8037109375	459.5993347167969	-168.5607147216797	-2846.1708984375	190.2951507568359	-451.7120971679688	-2266.626953125	439.2364501953125	-170.0310363769531	-2876.217041015625	338.0145568847656	-305.3228149414062	-2164.314208984375	357.6529541015625	-176.21728515625	-2244.563232421875	344.8471984863281	-178.3688201904297	-2838.0029296875	336.4736022949219	-405.5134887695312	-2164.5537109375	175.2784576416016	-191.433349609375	-1956.04248046875	193.4633331298828	-215.7451934814453	-2209.094482421875	129.3882293701172	-245.9615325927734	-2180.716796875	107.6637725830078	-275.6886291503906	-2197.79736328125	107.1343460083008	-219.3928527832031	-2897.023681640625	354.3653869628906	-355.416015625
